<mxfile host="65bd71144e" pages="3">
    <diagram id="spJWh6fmnWA-bjobDsIE" name="commands">
        <mxGraphModel dx="-412" dy="1348" grid="1" gridSize="10" guides="1" tooltips="1" connect="1" arrows="1" fold="1" page="0" pageScale="1" pageWidth="850" pageHeight="1100" math="0" shadow="0">
            <root>
                <mxCell id="0"/>
                <mxCell id="1" parent="0"/>
                <mxCell id="HOLjEY5VBweUEO4gcOTH-1" value="Feature Scripts" style="swimlane;whiteSpace=wrap;html=1;fontSize=24;startSize=40;" parent="1" vertex="1">
                    <mxGeometry x="2240" y="-520" width="880" height="560" as="geometry"/>
                </mxCell>
                <mxCell id="HOLjEY5VBweUEO4gcOTH-3" value="git restore --source &quot;chosen-backup&quot; ." style="rounded=1;whiteSpace=wrap;html=1;" parent="HOLjEY5VBweUEO4gcOTH-1" vertex="1">
                    <mxGeometry x="600" y="320" width="120" height="60" as="geometry"/>
                </mxCell>
                <mxCell id="HOLjEY5VBweUEO4gcOTH-4" value="--interactive" style="rounded=1;whiteSpace=wrap;html=1;" parent="HOLjEY5VBweUEO4gcOTH-1" vertex="1">
                    <mxGeometry x="740" y="220" width="120" height="60" as="geometry"/>
                </mxCell>
                <mxCell id="HOLjEY5VBweUEO4gcOTH-5" value="--time" style="rounded=1;whiteSpace=wrap;html=1;" parent="HOLjEY5VBweUEO4gcOTH-1" vertex="1">
                    <mxGeometry x="740" y="320" width="120" height="60" as="geometry"/>
                </mxCell>
                <mxCell id="HOLjEY5VBweUEO4gcOTH-8" value="let user interactively choose a branch" style="rounded=1;whiteSpace=wrap;html=1;" parent="HOLjEY5VBweUEO4gcOTH-1" vertex="1">
                    <mxGeometry x="600" y="220" width="120" height="60" as="geometry"/>
                </mxCell>
                <mxCell id="HOLjEY5VBweUEO4gcOTH-10" value="push&lt;br&gt;" style="shape=document;whiteSpace=wrap;html=1;boundedLbl=1;" parent="HOLjEY5VBweUEO4gcOTH-1" vertex="1">
                    <mxGeometry x="320" y="120" width="120" height="60" as="geometry"/>
                </mxCell>
                <mxCell id="HOLjEY5VBweUEO4gcOTH-11" value="pull" style="shape=document;whiteSpace=wrap;html=1;boundedLbl=1;" parent="HOLjEY5VBweUEO4gcOTH-1" vertex="1">
                    <mxGeometry x="460" y="120" width="120" height="60" as="geometry"/>
                </mxCell>
                <mxCell id="HOLjEY5VBweUEO4gcOTH-12" value="restore" style="shape=document;whiteSpace=wrap;html=1;boundedLbl=1;" parent="HOLjEY5VBweUEO4gcOTH-1" vertex="1">
                    <mxGeometry x="600" y="120" width="120" height="60" as="geometry"/>
                </mxCell>
                <mxCell id="HOLjEY5VBweUEO4gcOTH-14" value="prune [options]" style="shape=document;whiteSpace=wrap;html=1;boundedLbl=1;" parent="HOLjEY5VBweUEO4gcOTH-1" vertex="1">
                    <mxGeometry x="740" y="120" width="120" height="60" as="geometry"/>
                </mxCell>
                <mxCell id="HOLjEY5VBweUEO4gcOTH-15" value="&lt;meta charset=&quot;utf-8&quot;&gt;&lt;span style=&quot;color: rgb(240, 240, 240); font-family: Helvetica; font-size: 12px; font-style: normal; font-variant-ligatures: normal; font-variant-caps: normal; font-weight: 400; letter-spacing: normal; orphans: 2; text-align: center; text-indent: 0px; text-transform: none; widows: 2; word-spacing: 0px; -webkit-text-stroke-width: 0px; background-color: rgb(24, 20, 29); text-decoration-thickness: initial; text-decoration-style: initial; text-decoration-color: initial; float: none; display: inline !important;&quot;&gt;untracked changes or staged files?&lt;/span&gt;" style="rounded=1;whiteSpace=wrap;html=1;" parent="HOLjEY5VBweUEO4gcOTH-1" vertex="1">
                    <mxGeometry x="320" y="220" width="120" height="60" as="geometry"/>
                </mxCell>
                <mxCell id="HOLjEY5VBweUEO4gcOTH-17" value="print &lt;br&gt;&quot;nothing add or commit&quot;" style="rounded=1;whiteSpace=wrap;html=1;" parent="HOLjEY5VBweUEO4gcOTH-1" vertex="1">
                    <mxGeometry x="320" y="320" width="120" height="60" as="geometry"/>
                </mxCell>
                <mxCell id="HOLjEY5VBweUEO4gcOTH-19" value="ls" style="shape=document;whiteSpace=wrap;html=1;boundedLbl=1;" parent="HOLjEY5VBweUEO4gcOTH-1" vertex="1">
                    <mxGeometry x="180" y="120" width="120" height="60" as="geometry"/>
                </mxCell>
                <mxCell id="HOLjEY5VBweUEO4gcOTH-22" value="create" style="shape=document;whiteSpace=wrap;html=1;boundedLbl=1;" parent="HOLjEY5VBweUEO4gcOTH-1" vertex="1">
                    <mxGeometry x="40" y="120" width="120" height="60" as="geometry"/>
                </mxCell>
                <mxCell id="HOLjEY5VBweUEO4gcOTH-23" value="&lt;p style=&quot;line-height: 120%;&quot;&gt;Push all local backup branches to remote(s).&lt;/p&gt;&lt;p&gt;&lt;/p&gt;" style="text;html=1;strokeColor=none;fillColor=none;spacing=4;spacingTop=-16;whiteSpace=wrap;overflow=hidden;rounded=0;" parent="HOLjEY5VBweUEO4gcOTH-1" vertex="1">
                    <mxGeometry x="320" y="40" width="120" height="80" as="geometry"/>
                </mxCell>
                <mxCell id="HOLjEY5VBweUEO4gcOTH-24" value="&lt;p style=&quot;line-height: 120%;&quot;&gt;Fetch all backup branches from remote(s).&lt;br&gt;&lt;/p&gt;&lt;p&gt;&lt;/p&gt;" style="text;html=1;strokeColor=none;fillColor=none;spacing=4;spacingTop=-16;whiteSpace=wrap;overflow=hidden;rounded=0;" parent="HOLjEY5VBweUEO4gcOTH-1" vertex="1">
                    <mxGeometry x="460" y="40" width="120" height="80" as="geometry"/>
                </mxCell>
                <mxCell id="HOLjEY5VBweUEO4gcOTH-25" value="&lt;p style=&quot;line-height: 120%;&quot;&gt;Interactively select&amp;nbsp;from local backup branches, restore&amp;nbsp;working tree from it.&lt;br&gt;&lt;/p&gt;&lt;p&gt;&lt;/p&gt;" style="text;html=1;strokeColor=none;fillColor=none;spacing=4;spacingTop=-16;whiteSpace=wrap;overflow=hidden;rounded=0;" parent="HOLjEY5VBweUEO4gcOTH-1" vertex="1">
                    <mxGeometry x="600" y="40" width="120" height="80" as="geometry"/>
                </mxCell>
                <mxCell id="HOLjEY5VBweUEO4gcOTH-26" value="&lt;p style=&quot;line-height: 120%;&quot;&gt;&lt;span style=&quot;background-color: initial;&quot;&gt;Prune local and remote backup branches that are older than certain time threshold.&lt;/span&gt;&lt;/p&gt;&lt;p&gt;&lt;/p&gt;" style="text;html=1;strokeColor=none;fillColor=none;spacing=4;spacingTop=-16;whiteSpace=wrap;overflow=hidden;rounded=0;" parent="HOLjEY5VBweUEO4gcOTH-1" vertex="1">
                    <mxGeometry x="740" y="40" width="120" height="80" as="geometry"/>
                </mxCell>
                <mxCell id="HOLjEY5VBweUEO4gcOTH-27" value="&lt;p style=&quot;line-height: 120%;&quot;&gt;Create a new backup branch and c&lt;span style=&quot;background-color: initial;&quot;&gt;ommit all changes to it, restore changes to working directory.&lt;/span&gt;&lt;/p&gt;&lt;p&gt;&lt;/p&gt;" style="text;html=1;strokeColor=none;fillColor=none;spacing=4;spacingTop=-16;whiteSpace=wrap;overflow=hidden;rounded=0;" parent="HOLjEY5VBweUEO4gcOTH-1" vertex="1">
                    <mxGeometry x="40" y="40" width="120" height="80" as="geometry"/>
                </mxCell>
                <mxCell id="HOLjEY5VBweUEO4gcOTH-28" value="&lt;p style=&quot;line-height: 120%;&quot;&gt;List all local backup branches.&lt;/p&gt;&lt;p&gt;&lt;/p&gt;" style="text;html=1;strokeColor=none;fillColor=none;spacing=4;spacingTop=-16;whiteSpace=wrap;overflow=hidden;rounded=0;" parent="HOLjEY5VBweUEO4gcOTH-1" vertex="1">
                    <mxGeometry x="180" y="40" width="120" height="80" as="geometry"/>
                </mxCell>
            </root>
        </mxGraphModel>
    </diagram>
</mxfile>